<svg style="display:none;">
	<symbol id='icon_1'  viewBox="0 0 67 66" >
		<path class='cls-1' d="M 33.5 64.43C 50.87 64.43 65 50.43 65 33.21 65 16 50.87 2 33.5 2 16.13 2 2 16 2 33.21 2 50.43 16.13 64.43 33.5 64.43M 33.5 66.43C 15 66.43-0 51.56-0 33.21-0 14.87 15-0 33.5-0 52-0 67 14.87 67 33.21 67 51.56 52 66.43 33.5 66.43 33.5 66.43 33.5 66.43 33.5 66.43Z" fill="rgb(245,247,251)"/>
	</symbol>
	<symbol id='icon_2'  viewBox="0 0 80 83">
		<path class="cls-1" d="M 77.96-0.01C 77.96-0.01 66.03-0.01 66.03-0.01 64.91-0.01 64.01 0.89 64.01 2.01 64.01 2.01 64.01 6.18 64.01 6.18 64.01 6.18 15.86 6.18 15.86 6.18 15.86 6.18 15.86 2.01 15.86 2.01 15.86 0.89 14.96-0.01 13.84-0.01 13.84-0.01 2.02-0.01 2.02-0.01 0.9-0.01-0 0.89-0 2.01-0 2.01-0 14.28-0 14.28-0 15.4 0.9 16.3 2.02 16.3 2.02 16.3 13.95 16.3 13.95 16.3 15.07 16.3 15.97 15.4 15.97 14.28 15.97 14.28 15.97 10.11 15.97 10.11 15.97 10.11 38.13 10.11 38.13 10.11 37.91 15.06 25.87 38.35 18.22 52.08 17.77 52.87 18 53.88 18.67 54.55 25.53 60.4 27.22 66.14 27.67 69.07 27.67 69.07 25.08 69.07 25.08 69.07 23.96 69.07 23.06 69.97 23.06 71.09 23.06 71.09 23.06 80.99 23.06 80.99 23.06 82.12 23.96 83.02 25.08 83.02 25.08 83.02 55.01 83.02 55.01 83.02 56.13 83.02 57.03 82.12 57.03 80.99 57.03 80.99 57.03 71.09 57.03 71.09 57.03 69.97 56.13 69.07 55.01 69.07 55.01 69.07 52.42 69.07 52.42 69.07 52.87 66.14 54.56 60.4 61.42 54.55 62.09 53.99 62.32 52.87 61.87 52.08 54.22 38.35 42.18 14.95 41.96 10.11 41.96 10.11 64.01 10.11 64.01 10.11 64.01 10.11 64.01 14.28 64.01 14.28 64.01 15.4 64.91 16.3 66.03 16.3 66.03 16.3 77.96 16.3 77.96 16.3 79.08 16.3 79.98 15.4 79.98 14.28 79.98 14.28 79.98 2.01 79.98 2.01 79.98 0.89 79.08-0.01 77.96-0.01ZM 11.92 12.25C 11.92 12.25 3.94 12.25 3.94 12.25 3.94 12.25 3.94 3.93 3.94 3.93 3.94 3.93 11.92 3.93 11.92 3.93 11.92 3.93 11.92 12.25 11.92 12.25ZM 40.05 45.22C 41.51 45.22 42.63 46.34 42.63 47.8 42.63 49.27 41.51 50.39 40.05 50.39 38.58 50.39 37.46 49.27 37.46 47.8 37.46 46.45 38.7 45.22 40.05 45.22ZM 53.1 78.86C 53.1 78.86 27.11 78.86 27.11 78.86 27.11 78.86 27.11 72.89 27.11 72.89 27.11 72.89 29.81 72.89 29.81 72.89 29.81 72.89 50.4 72.89 50.4 72.89 50.4 72.89 53.1 72.89 53.1 72.89 53.1 72.89 53.1 78.86 53.1 78.86ZM 48.48 68.95C 48.48 68.95 31.61 68.95 31.61 68.95 31.16 65.69 29.47 59.17 22.39 52.53 25.08 47.58 33.18 32.73 38.02 21.7 38.02 21.7 38.02 41.62 38.02 41.62 35.43 42.4 33.52 44.88 33.52 47.8 33.52 51.4 36.45 54.33 40.05 54.33 43.65 54.33 46.57 51.4 46.57 47.8 46.57 44.88 44.66 42.52 42.07 41.62 42.07 41.62 42.07 21.59 42.07 21.59 47.02 32.62 55.01 47.47 57.71 52.53 50.62 59.17 48.93 65.69 48.48 68.95ZM 76.04 12.25C 76.04 12.25 68.06 12.25 68.06 12.25 68.06 12.25 68.06 8.54 68.06 8.54 68.06 8.43 68.06 8.31 68.06 8.2 68.06 8.09 68.06 7.98 68.06 7.86 68.06 7.86 68.06 4.04 68.06 4.04 68.06 4.04 76.04 4.04 76.04 4.04 76.04 4.04 76.04 12.25 76.04 12.25Z" />
	</symbol>
	<symbol id='icon_3'  viewBox="0 0 79 76">
		<path  class="cls-1" d="M 76.92 76C 76.92 76 2.08 76 2.08 76 0.93 76-0 75.06-0 73.9-0 73.9-0 12.98-0 12.98-0 12.98-0 2.09-0 2.09-0 0.93 0.93-0.01 2.08-0.01 2.08-0.01 76.92-0.01 76.92-0.01 78.07-0.01 79 0.93 79 2.09 79 2.09 79 12.98 79 12.98 79 12.98 79 73.9 79 73.9 79 75.06 78.07 76 76.92 76ZM 74.84 4.19C 74.84 4.19 4.16 4.19 4.16 4.19 4.16 4.19 4.16 10.88 4.16 10.88 4.16 10.88 74.84 10.88 74.84 10.88 74.84 10.88 74.84 4.19 74.84 4.19ZM 74.84 15.08C 74.84 15.08 4.16 15.08 4.16 15.08 4.16 15.08 4.16 71.8 4.16 71.8 4.16 71.8 74.84 71.8 74.84 71.8 74.84 71.8 74.84 15.08 74.84 15.08ZM 27.75 34.62C 28.46 33.91 29.61 33.91 30.32 34.62 31.03 35.34 31.03 36.5 30.32 37.22 30.32 37.22 25.96 41.63 25.96 41.63 25.96 41.63 30.33 46.04 30.33 46.04 31.04 46.76 31.04 47.92 30.33 48.64 29.98 49 29.51 49.18 29.04 49.18 28.58 49.18 28.11 49 27.76 48.64 27.76 48.64 22.1 42.93 22.1 42.93 21.39 42.21 21.39 41.05 22.1 40.33 22.1 40.33 27.75 34.62 27.75 34.62ZM 39.75 32.85C 40 31.86 41 31.27 41.96 31.52 42.94 31.77 43.53 32.77 43.28 33.76 43.28 33.76 38.65 52.04 38.65 52.04 38.44 52.87 37.7 53.42 36.89 53.42 36.74 53.42 36.59 53.4 36.44 53.36 35.47 53.11 34.88 52.11 35.13 51.13 35.13 51.13 39.75 32.85 39.75 32.85ZM 48.67 34.62C 49.38 33.91 50.53 33.91 51.24 34.62 51.24 34.62 56.9 40.34 56.9 40.34 57.24 40.68 57.43 41.15 57.43 41.64 57.43 42.12 57.24 42.59 56.9 42.93 56.9 42.93 51.25 48.64 51.25 48.64 50.89 49 50.43 49.18 49.96 49.18 49.5 49.18 49.03 49 48.68 48.64 47.97 47.92 47.97 46.76 48.68 46.04 48.68 46.04 53.04 41.64 53.04 41.64 53.04 41.64 48.67 37.22 48.67 37.22 47.96 36.5 47.96 35.34 48.67 34.62ZM 9.18 6.07C 9.98 6.07 10.63 6.73 10.63 7.54 10.63 8.35 9.98 9.01 9.18 9.01 8.38 9.01 7.73 8.35 7.73 7.54 7.73 6.73 8.38 6.07 9.18 6.07ZM 13.53 6.07C 14.33 6.07 14.98 6.73 14.98 7.54 14.98 8.35 14.33 9 13.53 9 12.73 9 12.08 8.35 12.08 7.54 12.08 6.73 12.73 6.07 13.53 6.07ZM 17.88 6.07C 18.68 6.07 19.34 6.73 19.34 7.54 19.34 8.35 18.68 9.01 17.88 9.01 17.08 9.01 16.43 8.35 16.43 7.54 16.43 6.73 17.08 6.07 17.88 6.07Z" />
</symbol>
<symbol id='icon_4'  viewBox="0 0 79 91"> 
	<path class="cls-1"  d="M 76.89 91C 76.89 91 2.08 91 2.08 91 0.92 91-0.01 90.07-0.01 88.92-0.01 88.92-0.01 13.48-0.01 13.48-0.01 12.34 0.92 11.4 2.08 11.4 2.08 11.4 22.55 11.4 22.55 11.4 22.77 8.22 25.44 5.72 28.68 5.72 28.68 5.72 34.67 5.72 34.67 5.72 34.7 2.57 37.3 0.01 40.48 0.01 43.67 0.01 46.25 2.57 46.3 5.72 46.3 5.72 52.28 5.72 52.28 5.72 55.53 5.72 58.2 8.22 58.42 11.4 58.42 11.4 76.89 11.4 76.89 11.4 78.05 11.4 78.98 12.34 78.98 13.48 78.98 13.48 78.98 88.92 78.98 88.92 78.98 90.07 78.05 91 76.89 91ZM 54.26 11.84C 54.26 10.76 53.38 9.88 52.28 9.88 52.28 9.88 45.74 9.88 45.74 9.88 43.74 9.88 42.11 8.26 42.11 6.27 42.11 6.27 42.11 5.79 42.11 5.79 42.11 4.9 41.38 4.17 40.48 4.17 39.59 4.17 38.86 4.9 38.86 5.79 38.86 5.79 38.86 6.27 38.86 6.27 38.86 8.26 37.23 9.88 35.22 9.88 35.22 9.88 28.68 9.88 28.68 9.88 27.59 9.88 26.71 10.76 26.71 11.84 26.71 11.84 26.71 11.84 26.71 11.84 26.71 11.84 26.71 16.1 26.71 16.1 26.71 16.1 54.26 16.1 54.26 16.1 54.26 16.1 54.26 11.84 54.26 11.84ZM 74.79 15.56C 74.79 15.56 58.44 15.56 58.44 15.56 58.44 15.56 58.44 18.18 58.44 18.18 58.44 19.33 57.51 20.26 56.35 20.26 56.35 20.26 24.62 20.26 24.62 20.26 23.46 20.26 22.53 19.33 22.53 18.18 22.53 18.18 22.53 15.56 22.53 15.56 22.53 15.56 4.17 15.56 4.17 15.56 4.17 15.56 4.17 86.84 4.17 86.84 4.17 86.84 74.79 86.84 74.79 86.84 74.79 86.84 74.79 15.56 74.79 15.56ZM 19.77 32.38C 19.77 32.38 21.76 34.35 21.76 34.35 21.76 34.35 26.84 29.3 26.84 29.3 27.46 28.69 28.45 28.69 29.06 29.3 29.67 29.91 29.67 30.89 29.06 31.5 29.06 31.5 22.87 37.66 22.87 37.66 22.56 37.96 22.16 38.11 21.76 38.11 21.35 38.11 20.95 37.96 20.65 37.66 20.65 37.66 17.55 34.58 17.55 34.58 16.94 33.97 16.94 32.98 17.55 32.38 18.16 31.77 19.15 31.77 19.77 32.38ZM 19.77 45.71C 19.77 45.71 21.76 47.69 21.76 47.69 21.76 47.69 26.84 42.64 26.84 42.64 27.46 42.03 28.45 42.03 29.06 42.64 29.68 43.25 29.67 44.23 29.06 44.84 29.06 44.84 22.87 51 22.87 51 22.56 51.3 22.16 51.45 21.76 51.45 21.35 51.45 20.95 51.3 20.65 51 20.65 51 17.55 47.92 17.55 47.92 16.94 47.31 16.94 46.32 17.55 45.71 18.16 45.11 19.15 45.11 19.77 45.71ZM 19.77 59.06C 19.77 59.06 21.76 61.03 21.76 61.03 21.76 61.03 26.84 55.98 26.84 55.98 27.46 55.37 28.45 55.37 29.06 55.98 29.67 56.59 29.67 57.58 29.06 58.18 29.06 58.18 22.87 64.34 22.87 64.34 22.56 64.64 22.16 64.79 21.76 64.79 21.35 64.79 20.95 64.64 20.65 64.34 20.65 64.34 17.55 61.26 17.55 61.26 16.94 60.65 16.94 59.66 17.55 59.06 18.16 58.45 19.15 58.45 19.77 59.06ZM 19.77 72.4C 19.77 72.4 21.76 74.37 21.76 74.37 21.76 74.37 26.84 69.32 26.84 69.32 27.46 68.71 28.45 68.71 29.06 69.32 29.68 69.93 29.67 70.92 29.06 71.53 29.06 71.53 22.87 77.68 22.87 77.68 22.56 77.98 22.16 78.14 21.76 78.14 21.35 78.14 20.95 77.98 20.65 77.68 20.65 77.68 17.55 74.6 17.55 74.6 16.94 73.99 16.94 73.01 17.55 72.4 18.16 71.79 19.15 71.79 19.77 72.4ZM 35.64 31.92C 35.64 31.92 54.31 31.92 54.31 31.92 55.18 31.92 55.88 32.62 55.88 33.48 55.88 34.34 55.18 35.04 54.31 35.04 54.31 35.04 35.64 35.04 35.64 35.04 34.77 35.04 34.07 34.34 34.07 33.48 34.07 32.62 34.77 31.92 35.64 31.92ZM 35.64 45.26C 35.64 45.26 54.31 45.26 54.31 45.26 55.18 45.26 55.88 45.96 55.88 46.82 55.88 47.68 55.18 48.38 54.31 48.38 54.31 48.38 35.64 48.38 35.64 48.38 34.77 48.38 34.07 47.68 34.07 46.82 34.07 45.96 34.77 45.26 35.64 45.26ZM 35.64 58.6C 35.64 58.6 54.31 58.6 54.31 58.6 55.18 58.6 55.88 59.3 55.88 60.16 55.88 61.02 55.18 61.72 54.31 61.72 54.31 61.72 35.64 61.72 35.64 61.72 34.77 61.72 34.07 61.02 34.07 60.16 34.07 59.3 34.77 58.6 35.64 58.6ZM 35.64 71.94C 35.64 71.94 54.31 71.94 54.31 71.94 55.18 71.94 55.88 72.64 55.88 73.5 55.88 74.36 55.18 75.06 54.31 75.06 54.31 75.06 35.64 75.06 35.64 75.06 34.77 75.06 34.07 74.36 34.07 73.5 34.07 72.64 34.77 71.94 35.64 71.94ZM 40.48 10.14C 41.59 10.14 42.49 11.03 42.49 12.14 42.49 13.24 41.59 14.13 40.48 14.13 39.37 14.13 38.47 13.24 38.47 12.14 38.47 11.03 39.37 10.14 40.48 10.14Z" />
</symbol>





</svg>